# xmcd
#
# Track frame offsets: 
#        150
#        20748
#        38558
#        59658
#        83443
#        99364
#        121954
#        138105
#        159841
#        184591
#
# Disc length: 2591 seconds
#
# Revision: 0
# Processed by: cddbd v1.5.2PL0 Copyright (c) Steve Scherf et al.
# Submitted via: ExactAudioCopy v0.99pb3
#
DISCID=700a1d0a
DTITLE=Shelly Bhushan - Picking Daisies
DYEAR=2007
DGENRE=R&B
TTITLE0=Perfect Stranger
TTITLE1=Picking Daisies
TTITLE2=Beautiful Me
TTITLE3=Little Piece
TTITLE4=Birthday Suit
TTITLE5=Not to Me
TTITLE6=Time to Go Home
TTITLE7=Show Me a Sign
TTITLE8=It's Over
TTITLE9=The Nest
EXTD=
EXTT0=
EXTT1=
EXTT2=
EXTT3=
EXTT4=
EXTT5=
EXTT6=
EXTT7=
EXTT8=
EXTT9=
PLAYORDER=
